<svg xmlns="http://www.w3.org/2000/svg" viewBox="0 0 64 <defs><linearGradient id="f" x1="0" y1="0" x2="1" y2="1"><stop offset="0" stop-color="#2563eb"/><stop offset="1" stop-color="#06b6d4"/></linearGradient></defs><rect width="64" height="64" fill="url(#f)"/><g transform="translate(32,33)"><path d="M -20.0 -12.0 h 28.0 a 5.0 5.0 0 0 1 5.0 5.0 v 10.0 a 5.0 5.0 0 0 1 -5.0 5.0 h -15.0 l -7.0 6.0 v -6.0 h -6.0 a 5.0 5.0 0 0 1 -5.0 -5.0 v -10.0 a 5.0 5.0 0 0 1 5.0 -5.0 z" fill="#fff"/><circle cx="-7.0" cy="-2.0" r="2.0" fill="#00000040"/><circle cx="0" cy="-2.0" r="2.0" fill="#00000040"/><circle cx="7.0" cy="-2.0" r="2.0" fill="#00000040"/></g>" width="64" height="<defs><linearGradient id="f" x1="0" y1="0" x2="1" y2="1"><stop offset="0" stop-color="#2563eb"/><stop offset="1" stop-color="#06b6d4"/></linearGradient></defs><rect width="64" height="64" fill="url(#f)"/><g transform="translate(32,33)"><path d="M -20.0 -12.0 h 28.0 a 5.0 5.0 0 0 1 5.0 5.0 v 10.0 a 5.0 5.0 0 0 1 -5.0 5.0 h -15.0 l -7.0 6.0 v -6.0 h -6.0 a 5.0 5.0 0 0 1 -5.0 -5.0 v -10.0 a 5.0 5.0 0 0 1 5.0 -5.0 z" fill="#fff"/><circle cx="-7.0" cy="-2.0" r="2.0" fill="#00000040"/><circle cx="0" cy="-2.0" r="2.0" fill="#00000040"/><circle cx="7.0" cy="-2.0" r="2.0" fill="#00000040"/></g>" role="img">64</svg>